<svg xmlns="http://www.w3.org/2000/svg" width="40" height="40" viewBox="40 0 317.7 311.7">
  <defs>
    <linearGradient id="grad1" x1="360.8791" y1="351.4553" x2="141.213" y2="-69.2936" gradientTransform="matrix(1 0 0 -1 0 314)">
      <stop offset="0" stop-color="#00FFA3"/>
      <stop offset="1" stop-color="#DC1FFF"/>
    </linearGradient>
    <linearGradient id="grad2" x1="264.8291" y1="401.6014" x2="45.163" y2="-19.1475" gradientTransform="matrix(1 0 0 -1 0 314)">
      <stop offset="0" stop-color="#00FFA3"/>
      <stop offset="1" stop-color="#DC1FFF"/>
    </linearGradient>
    <linearGradient id="grad3" x1="312.5484" y1="376.688" x2="92.8822" y2="-44.061" gradientTransform="matrix(1 0 0 -1 0 314)">
      <stop offset="0" stop-color="#00FFA3"/>
      <stop offset="1" stop-color="#DC1FFF"/>
    </linearGradient>
  </defs>
  
  <path fill="url(#grad1)" d="M64.6,237.9c2.4-2.4,5.7-3.8,9.2-3.8h317.4c5.8,0,8.7,7,4.6,11.1l-62.7,62.7c-2.4,2.4-5.7,3.8-9.2,3.8H6.5c-5.8,0-8.7-7-4.6-11.1L64.6,237.9z"/>
  <path fill="url(#grad2)" d="M64.6,3.8C67.1,1.4,70.4,0,73.8,0h317.4c5.8,0,8.7,7,4.6,11.1l-62.7,62.7c-2.4,2.4-5.7,3.8-9.2,3.8H6.5c-5.8,0-8.7-7-4.6-11.1L64.6,3.8z"/>
  <path fill="url(#grad3)" d="M333.1,120.1c-2.4-2.4-5.7-3.8-9.2-3.8H6.5c-5.8,0-8.7,7-4.6,11.1l62.7,62.7c2.4,2.4,5.7,3.8,9.2,3.8h317.4c5.8,0,8.7-7,4.6-11.1L333.1,120.1z"/>
</svg>